M48
; DRILL file {KiCad 9.0.2} date 2025-06-15T18:17:54+0800
; FORMAT={-:-/ absolute / metric / decimal}
; #@! TF.CreationDate,2025-06-15T18:17:54+08:00
; #@! TF.GenerationSoftware,Kicad,Pcbnew,9.0.2
; #@! TF.FileFunction,NonPlated,1,2,NPTH
FMAT,2
METRIC
; #@! TA.AperFunction,NonPlated,NPTH,ComponentDrill
T1C1.700
; #@! TA.AperFunction,NonPlated,NPTH,ComponentDrill
T2C4.000
%
G90
G05
T1
X109.62Y-91.7
X109.62Y-110.75
X109.62Y-129.8
X119.78Y-91.7
X119.78Y-110.75
X119.78Y-129.8
X128.67Y-91.7
X128.67Y-110.75
X128.67Y-129.8
X138.83Y-91.7
X138.83Y-110.75
X138.83Y-129.8
X147.72Y-91.7
X147.72Y-110.75
X147.72Y-129.8
X157.88Y-91.7
X157.88Y-110.75
X157.88Y-129.8
T2
X114.7Y-91.7
X114.7Y-110.75
X114.7Y-129.8
X133.75Y-91.7
X133.75Y-110.75
X133.75Y-129.8
X152.8Y-91.7
X152.8Y-110.75
X152.8Y-129.8
M30
