%TF.GenerationSoftware,KiCad,Pcbnew,9.0.2*%
%TF.CreationDate,2025-06-15T18:17:56+08:00*%
%TF.ProjectId,osuPad,6f737550-6164-42e6-9b69-6361645f7063,rev?*%
%TF.SameCoordinates,Original*%
%TF.FileFunction,Copper,L2,Bot*%
%TF.FilePolarity,Positive*%
%FSLAX46Y46*%
G04 Gerber Fmt 4.6, Leading zero omitted, Abs format (unit mm)*
G04 Created by KiCad (PCBNEW 9.0.2) date 2025-06-15 18:17:56*
%MOMM*%
%LPD*%
G01*
G04 APERTURE LIST*
%TA.AperFunction,ComponentPad*%
%ADD10C,2.200000*%
%TD*%
%TA.AperFunction,ComponentPad*%
%ADD11R,1.700000X1.700000*%
%TD*%
%TA.AperFunction,ComponentPad*%
%ADD12O,1.700000X1.700000*%
%TD*%
%TA.AperFunction,ComponentPad*%
%ADD13C,1.524000*%
%TD*%
%TA.AperFunction,ViaPad*%
%ADD14C,0.600000*%
%TD*%
%TA.AperFunction,Conductor*%
%ADD15C,0.200000*%
%TD*%
G04 APERTURE END LIST*
D10*
%TO.P,SW4,1,1*%
%TO.N,GND*%
X117240000Y-105670000D03*
%TO.P,SW4,2,2*%
%TO.N,Net-(U1-GPIO29{slash}ADC3{slash}A3)*%
X110890000Y-108210000D03*
%TD*%
%TO.P,SW5,1,1*%
%TO.N,GND*%
X136290000Y-105670000D03*
%TO.P,SW5,2,2*%
%TO.N,Net-(U1-GPIO1{slash}RX)*%
X129940000Y-108210000D03*
%TD*%
%TO.P,SW6,1,1*%
%TO.N,GND*%
X155340000Y-105670000D03*
%TO.P,SW6,2,2*%
%TO.N,Net-(U1-GPIO2{slash}SCK)*%
X148990000Y-108210000D03*
%TD*%
D11*
%TO.P,Brd1,1,GND*%
%TO.N,GND*%
X136131250Y-67848750D03*
D12*
%TO.P,Brd1,2,VCC*%
%TO.N,+5V*%
X136131250Y-70388750D03*
%TO.P,Brd1,3,SCL*%
%TO.N,Net-(Brd1-SCL)*%
X136131250Y-72928750D03*
%TO.P,Brd1,4,SDA*%
%TO.N,Net-(Brd1-SDA)*%
X136131250Y-75468750D03*
%TD*%
D10*
%TO.P,SW9,1,1*%
%TO.N,GND*%
X155340000Y-86620000D03*
%TO.P,SW9,2,2*%
%TO.N,Net-(U1-GPIO0{slash}TX)*%
X148990000Y-89160000D03*
%TD*%
%TO.P,SW1,1,1*%
%TO.N,GND*%
X117240000Y-124720000D03*
%TO.P,SW1,2,2*%
%TO.N,Net-(U1-GPIO26{slash}ADC0{slash}A0)*%
X110890000Y-127260000D03*
%TD*%
%TO.P,SW8,1,1*%
%TO.N,GND*%
X136290000Y-86620000D03*
%TO.P,SW8,2,2*%
%TO.N,Net-(U1-GPIO3{slash}MOSI)*%
X129940000Y-89160000D03*
%TD*%
%TO.P,SW7,1,1*%
%TO.N,GND*%
X117240000Y-86620000D03*
%TO.P,SW7,2,2*%
%TO.N,Net-(U1-GPIO4{slash}MISO)*%
X110890000Y-89160000D03*
%TD*%
%TO.P,SW3,1,1*%
%TO.N,GND*%
X155340000Y-124720000D03*
%TO.P,SW3,2,2*%
%TO.N,Net-(U1-GPIO28{slash}ADC2{slash}A2)*%
X148990000Y-127260000D03*
%TD*%
D13*
%TO.P,U1,1,GPIO26/ADC0/A0*%
%TO.N,Net-(U1-GPIO26{slash}ADC0{slash}A0)*%
X144556250Y-62928750D03*
%TO.P,U1,2,GPIO27/ADC1/A1*%
%TO.N,Net-(U1-GPIO27{slash}ADC1{slash}A1)*%
X144556250Y-65468750D03*
%TO.P,U1,3,GPIO28/ADC2/A2*%
%TO.N,Net-(U1-GPIO28{slash}ADC2{slash}A2)*%
X144556250Y-68008750D03*
%TO.P,U1,4,GPIO29/ADC3/A3*%
%TO.N,Net-(U1-GPIO29{slash}ADC3{slash}A3)*%
X144556250Y-70548750D03*
%TO.P,U1,5,GPIO6/SDA*%
%TO.N,Net-(Brd1-SDA)*%
X144556250Y-73088750D03*
%TO.P,U1,6,GPIO7/SCL*%
%TO.N,Net-(Brd1-SCL)*%
X144556250Y-75628750D03*
%TO.P,U1,7,GPIO0/TX*%
%TO.N,Net-(U1-GPIO0{slash}TX)*%
X144556250Y-78168750D03*
%TO.P,U1,8,GPIO1/RX*%
%TO.N,Net-(U1-GPIO1{slash}RX)*%
X159796250Y-78168750D03*
%TO.P,U1,9,GPIO2/SCK*%
%TO.N,Net-(U1-GPIO2{slash}SCK)*%
X159796250Y-75628750D03*
%TO.P,U1,10,GPIO4/MISO*%
%TO.N,Net-(U1-GPIO4{slash}MISO)*%
X159796250Y-73088750D03*
%TO.P,U1,11,GPIO3/MOSI*%
%TO.N,Net-(U1-GPIO3{slash}MOSI)*%
X159796250Y-70548750D03*
%TO.P,U1,12,3V3*%
%TO.N,unconnected-(U1-3V3-Pad12)*%
X159796250Y-68008750D03*
%TO.P,U1,13,GND*%
%TO.N,GND*%
X159796250Y-65468750D03*
%TO.P,U1,14,VBUS*%
%TO.N,+5V*%
X159796250Y-62928750D03*
%TD*%
D10*
%TO.P,SW2,1,1*%
%TO.N,GND*%
X136290000Y-124720000D03*
%TO.P,SW2,2,2*%
%TO.N,Net-(U1-GPIO27{slash}ADC1{slash}A1)*%
X129940000Y-127260000D03*
%TD*%
D14*
%TO.N,GND*%
X138531250Y-67768750D03*
%TO.N,Net-(U1-GPIO26{slash}ADC0{slash}A0)*%
X139731250Y-70268750D03*
X139731250Y-79368750D03*
%TO.N,Net-(U1-GPIO27{slash}ADC1{slash}A1)*%
X140531250Y-79368750D03*
X140552616Y-70295914D03*
%TO.N,Net-(U1-GPIO28{slash}ADC2{slash}A2)*%
X141331253Y-79368750D03*
X141390585Y-70306474D03*
%TO.N,Net-(U1-GPIO29{slash}ADC3{slash}A3)*%
X139700000Y-80900000D03*
X142131250Y-71768750D03*
%TO.N,Net-(U1-GPIO1{slash}RX)*%
X139775735Y-83675735D03*
X143631250Y-83468750D03*
X145631250Y-83268750D03*
X141606985Y-85193015D03*
%TO.N,Net-(U1-GPIO4{slash}MISO)*%
X139931250Y-81768750D03*
X144255947Y-81468508D03*
%TO.N,Net-(U1-GPIO3{slash}MOSI)*%
X142331250Y-82168750D03*
X143531250Y-80968750D03*
%TO.N,Net-(U1-GPIO0{slash}TX)*%
X147400000Y-83000000D03*
%TD*%
D15*
%TO.N,GND*%
X138531250Y-75968750D02*
X134531250Y-79968750D01*
X143831250Y-105668750D02*
X143832500Y-105670000D01*
X124630000Y-105670000D02*
X117240000Y-105670000D01*
X143831250Y-105668750D02*
X143831250Y-123668750D01*
X143831250Y-86768750D02*
X143831250Y-105668750D01*
X138931250Y-81668750D02*
X143831250Y-86568750D01*
X138531250Y-67768750D02*
X138531250Y-75968750D01*
X143831250Y-123668750D02*
X144882500Y-124720000D01*
X124180000Y-86620000D02*
X117240000Y-86620000D01*
X124680000Y-86620000D02*
X136290000Y-86620000D01*
X124680000Y-86620000D02*
X124180000Y-86620000D01*
X124731250Y-105668750D02*
X124732500Y-105670000D01*
X124731250Y-105568750D02*
X124630000Y-105670000D01*
X143831250Y-86568750D02*
X143831250Y-86768750D01*
X130431250Y-79968750D02*
X124731250Y-85668750D01*
X124731250Y-85668750D02*
X124731250Y-124720000D01*
X124731250Y-124720000D02*
X136290000Y-124720000D01*
X143882500Y-86620000D02*
X155340000Y-86620000D01*
X124732500Y-105670000D02*
X136290000Y-105670000D01*
X134531250Y-79968750D02*
X130431250Y-79968750D01*
X138531250Y-75968750D02*
X138931250Y-76368750D01*
X124731250Y-124720000D02*
X117240000Y-124720000D01*
X155291250Y-124768750D02*
X155340000Y-124720000D01*
X143832500Y-105670000D02*
X155340000Y-105670000D01*
X144882500Y-124720000D02*
X155340000Y-124720000D01*
X138931250Y-76368750D02*
X138931250Y-81668750D01*
X143831250Y-86568750D02*
X143882500Y-86620000D01*
%TO.N,Net-(U1-GPIO26{slash}ADC0{slash}A0)*%
X139731250Y-70268750D02*
X139731250Y-79368750D01*
%TO.N,Net-(U1-GPIO27{slash}ADC1{slash}A1)*%
X140552616Y-70295914D02*
X140660411Y-70295914D01*
X140552616Y-70295914D02*
X140531250Y-70317280D01*
X140531250Y-70317280D02*
X140531250Y-79368750D01*
%TO.N,Net-(U1-GPIO28{slash}ADC2{slash}A2)*%
X141390585Y-70306474D02*
X141331253Y-70365806D01*
X141331253Y-70365806D02*
X141331253Y-79368750D01*
X141390585Y-70306474D02*
X141470974Y-70306474D01*
%TO.N,Net-(U1-GPIO29{slash}ADC3{slash}A3)*%
X140649946Y-80900000D02*
X139700000Y-80900000D01*
X142131250Y-71768750D02*
X142131250Y-79268750D01*
X142131250Y-79418696D02*
X140649946Y-80900000D01*
X142131250Y-79268750D02*
X142131250Y-79418696D01*
%TO.N,Net-(U1-GPIO1{slash}RX)*%
X141606985Y-85193015D02*
X141293015Y-85193015D01*
X145631250Y-83268750D02*
X145431250Y-83468750D01*
X145431250Y-83468750D02*
X143631250Y-83468750D01*
X141293015Y-85193015D02*
X139775735Y-83675735D01*
%TO.N,Net-(U1-GPIO4{slash}MISO)*%
X141531250Y-83368750D02*
X142355705Y-83368750D01*
X139931250Y-81768750D02*
X141531250Y-83368750D01*
X142355705Y-83368750D02*
X144255947Y-81468508D01*
%TO.N,Net-(U1-GPIO3{slash}MOSI)*%
X142331250Y-82168750D02*
X143531250Y-80968750D01*
%TO.N,Net-(U1-GPIO0{slash}TX)*%
X147400000Y-83000000D02*
X144556250Y-80156250D01*
X144556250Y-80156250D02*
X144556250Y-78168750D01*
%TD*%
M02*
