%TF.GenerationSoftware,KiCad,Pcbnew,9.0.2*%
%TF.CreationDate,2025-06-15T18:17:56+08:00*%
%TF.ProjectId,osuPad,6f737550-6164-42e6-9b69-6361645f7063,rev?*%
%TF.SameCoordinates,Original*%
%TF.FileFunction,Legend,Top*%
%TF.FilePolarity,Positive*%
%FSLAX46Y46*%
G04 Gerber Fmt 4.6, Leading zero omitted, Abs format (unit mm)*
G04 Created by KiCad (PCBNEW 9.0.2) date 2025-06-15 18:17:56*
%MOMM*%
%LPD*%
G01*
G04 APERTURE LIST*
%ADD10C,0.100000*%
%ADD11C,0.150000*%
%ADD12C,0.101600*%
%ADD13C,0.120000*%
%ADD14C,0.040000*%
%ADD15C,0.127000*%
%ADD16C,0.504000*%
G04 APERTURE END LIST*
D10*
X147039896Y-67641169D02*
X147706562Y-68641169D01*
X147706562Y-67641169D02*
X147039896Y-68641169D01*
X148087515Y-68641169D02*
X148087515Y-67641169D01*
X148516086Y-68355454D02*
X148992276Y-68355454D01*
X148420848Y-68641169D02*
X148754181Y-67641169D01*
X148754181Y-67641169D02*
X149087514Y-68641169D01*
X149611324Y-67641169D02*
X149801800Y-67641169D01*
X149801800Y-67641169D02*
X149897038Y-67688788D01*
X149897038Y-67688788D02*
X149992276Y-67784026D01*
X149992276Y-67784026D02*
X150039895Y-67974502D01*
X150039895Y-67974502D02*
X150039895Y-68307835D01*
X150039895Y-68307835D02*
X149992276Y-68498311D01*
X149992276Y-68498311D02*
X149897038Y-68593550D01*
X149897038Y-68593550D02*
X149801800Y-68641169D01*
X149801800Y-68641169D02*
X149611324Y-68641169D01*
X149611324Y-68641169D02*
X149516086Y-68593550D01*
X149516086Y-68593550D02*
X149420848Y-68498311D01*
X149420848Y-68498311D02*
X149373229Y-68307835D01*
X149373229Y-68307835D02*
X149373229Y-67974502D01*
X149373229Y-67974502D02*
X149420848Y-67784026D01*
X149420848Y-67784026D02*
X149516086Y-67688788D01*
X149516086Y-67688788D02*
X149611324Y-67641169D01*
X150468467Y-68260216D02*
X151230372Y-68260216D01*
X152277990Y-68641169D02*
X151944657Y-68164978D01*
X151706562Y-68641169D02*
X151706562Y-67641169D01*
X151706562Y-67641169D02*
X152087514Y-67641169D01*
X152087514Y-67641169D02*
X152182752Y-67688788D01*
X152182752Y-67688788D02*
X152230371Y-67736407D01*
X152230371Y-67736407D02*
X152277990Y-67831645D01*
X152277990Y-67831645D02*
X152277990Y-67974502D01*
X152277990Y-67974502D02*
X152230371Y-68069740D01*
X152230371Y-68069740D02*
X152182752Y-68117359D01*
X152182752Y-68117359D02*
X152087514Y-68164978D01*
X152087514Y-68164978D02*
X151706562Y-68164978D01*
X152706562Y-68641169D02*
X152706562Y-67641169D01*
X152706562Y-67641169D02*
X153087514Y-67641169D01*
X153087514Y-67641169D02*
X153182752Y-67688788D01*
X153182752Y-67688788D02*
X153230371Y-67736407D01*
X153230371Y-67736407D02*
X153277990Y-67831645D01*
X153277990Y-67831645D02*
X153277990Y-67974502D01*
X153277990Y-67974502D02*
X153230371Y-68069740D01*
X153230371Y-68069740D02*
X153182752Y-68117359D01*
X153182752Y-68117359D02*
X153087514Y-68164978D01*
X153087514Y-68164978D02*
X152706562Y-68164978D01*
X153658943Y-67736407D02*
X153706562Y-67688788D01*
X153706562Y-67688788D02*
X153801800Y-67641169D01*
X153801800Y-67641169D02*
X154039895Y-67641169D01*
X154039895Y-67641169D02*
X154135133Y-67688788D01*
X154135133Y-67688788D02*
X154182752Y-67736407D01*
X154182752Y-67736407D02*
X154230371Y-67831645D01*
X154230371Y-67831645D02*
X154230371Y-67926883D01*
X154230371Y-67926883D02*
X154182752Y-68069740D01*
X154182752Y-68069740D02*
X153611324Y-68641169D01*
X153611324Y-68641169D02*
X154230371Y-68641169D01*
X154849419Y-67641169D02*
X154944657Y-67641169D01*
X154944657Y-67641169D02*
X155039895Y-67688788D01*
X155039895Y-67688788D02*
X155087514Y-67736407D01*
X155087514Y-67736407D02*
X155135133Y-67831645D01*
X155135133Y-67831645D02*
X155182752Y-68022121D01*
X155182752Y-68022121D02*
X155182752Y-68260216D01*
X155182752Y-68260216D02*
X155135133Y-68450692D01*
X155135133Y-68450692D02*
X155087514Y-68545930D01*
X155087514Y-68545930D02*
X155039895Y-68593550D01*
X155039895Y-68593550D02*
X154944657Y-68641169D01*
X154944657Y-68641169D02*
X154849419Y-68641169D01*
X154849419Y-68641169D02*
X154754181Y-68593550D01*
X154754181Y-68593550D02*
X154706562Y-68545930D01*
X154706562Y-68545930D02*
X154658943Y-68450692D01*
X154658943Y-68450692D02*
X154611324Y-68260216D01*
X154611324Y-68260216D02*
X154611324Y-68022121D01*
X154611324Y-68022121D02*
X154658943Y-67831645D01*
X154658943Y-67831645D02*
X154706562Y-67736407D01*
X154706562Y-67736407D02*
X154754181Y-67688788D01*
X154754181Y-67688788D02*
X154849419Y-67641169D01*
X156039895Y-67974502D02*
X156039895Y-68641169D01*
X155801800Y-67593550D02*
X155563705Y-68307835D01*
X155563705Y-68307835D02*
X156182752Y-68307835D01*
X156754181Y-67641169D02*
X156849419Y-67641169D01*
X156849419Y-67641169D02*
X156944657Y-67688788D01*
X156944657Y-67688788D02*
X156992276Y-67736407D01*
X156992276Y-67736407D02*
X157039895Y-67831645D01*
X157039895Y-67831645D02*
X157087514Y-68022121D01*
X157087514Y-68022121D02*
X157087514Y-68260216D01*
X157087514Y-68260216D02*
X157039895Y-68450692D01*
X157039895Y-68450692D02*
X156992276Y-68545930D01*
X156992276Y-68545930D02*
X156944657Y-68593550D01*
X156944657Y-68593550D02*
X156849419Y-68641169D01*
X156849419Y-68641169D02*
X156754181Y-68641169D01*
X156754181Y-68641169D02*
X156658943Y-68593550D01*
X156658943Y-68593550D02*
X156611324Y-68545930D01*
X156611324Y-68545930D02*
X156563705Y-68450692D01*
X156563705Y-68450692D02*
X156516086Y-68260216D01*
X156516086Y-68260216D02*
X156516086Y-68022121D01*
X156516086Y-68022121D02*
X156563705Y-67831645D01*
X156563705Y-67831645D02*
X156611324Y-67736407D01*
X156611324Y-67736407D02*
X156658943Y-67688788D01*
X156658943Y-67688788D02*
X156754181Y-67641169D01*
D11*
X113366667Y-103283200D02*
X113509524Y-103330819D01*
X113509524Y-103330819D02*
X113747619Y-103330819D01*
X113747619Y-103330819D02*
X113842857Y-103283200D01*
X113842857Y-103283200D02*
X113890476Y-103235580D01*
X113890476Y-103235580D02*
X113938095Y-103140342D01*
X113938095Y-103140342D02*
X113938095Y-103045104D01*
X113938095Y-103045104D02*
X113890476Y-102949866D01*
X113890476Y-102949866D02*
X113842857Y-102902247D01*
X113842857Y-102902247D02*
X113747619Y-102854628D01*
X113747619Y-102854628D02*
X113557143Y-102807009D01*
X113557143Y-102807009D02*
X113461905Y-102759390D01*
X113461905Y-102759390D02*
X113414286Y-102711771D01*
X113414286Y-102711771D02*
X113366667Y-102616533D01*
X113366667Y-102616533D02*
X113366667Y-102521295D01*
X113366667Y-102521295D02*
X113414286Y-102426057D01*
X113414286Y-102426057D02*
X113461905Y-102378438D01*
X113461905Y-102378438D02*
X113557143Y-102330819D01*
X113557143Y-102330819D02*
X113795238Y-102330819D01*
X113795238Y-102330819D02*
X113938095Y-102378438D01*
X114271429Y-102330819D02*
X114509524Y-103330819D01*
X114509524Y-103330819D02*
X114700000Y-102616533D01*
X114700000Y-102616533D02*
X114890476Y-103330819D01*
X114890476Y-103330819D02*
X115128572Y-102330819D01*
X115938095Y-102664152D02*
X115938095Y-103330819D01*
X115700000Y-102283200D02*
X115461905Y-102997485D01*
X115461905Y-102997485D02*
X116080952Y-102997485D01*
X132416667Y-103283200D02*
X132559524Y-103330819D01*
X132559524Y-103330819D02*
X132797619Y-103330819D01*
X132797619Y-103330819D02*
X132892857Y-103283200D01*
X132892857Y-103283200D02*
X132940476Y-103235580D01*
X132940476Y-103235580D02*
X132988095Y-103140342D01*
X132988095Y-103140342D02*
X132988095Y-103045104D01*
X132988095Y-103045104D02*
X132940476Y-102949866D01*
X132940476Y-102949866D02*
X132892857Y-102902247D01*
X132892857Y-102902247D02*
X132797619Y-102854628D01*
X132797619Y-102854628D02*
X132607143Y-102807009D01*
X132607143Y-102807009D02*
X132511905Y-102759390D01*
X132511905Y-102759390D02*
X132464286Y-102711771D01*
X132464286Y-102711771D02*
X132416667Y-102616533D01*
X132416667Y-102616533D02*
X132416667Y-102521295D01*
X132416667Y-102521295D02*
X132464286Y-102426057D01*
X132464286Y-102426057D02*
X132511905Y-102378438D01*
X132511905Y-102378438D02*
X132607143Y-102330819D01*
X132607143Y-102330819D02*
X132845238Y-102330819D01*
X132845238Y-102330819D02*
X132988095Y-102378438D01*
X133321429Y-102330819D02*
X133559524Y-103330819D01*
X133559524Y-103330819D02*
X133750000Y-102616533D01*
X133750000Y-102616533D02*
X133940476Y-103330819D01*
X133940476Y-103330819D02*
X134178572Y-102330819D01*
X135035714Y-102330819D02*
X134559524Y-102330819D01*
X134559524Y-102330819D02*
X134511905Y-102807009D01*
X134511905Y-102807009D02*
X134559524Y-102759390D01*
X134559524Y-102759390D02*
X134654762Y-102711771D01*
X134654762Y-102711771D02*
X134892857Y-102711771D01*
X134892857Y-102711771D02*
X134988095Y-102759390D01*
X134988095Y-102759390D02*
X135035714Y-102807009D01*
X135035714Y-102807009D02*
X135083333Y-102902247D01*
X135083333Y-102902247D02*
X135083333Y-103140342D01*
X135083333Y-103140342D02*
X135035714Y-103235580D01*
X135035714Y-103235580D02*
X134988095Y-103283200D01*
X134988095Y-103283200D02*
X134892857Y-103330819D01*
X134892857Y-103330819D02*
X134654762Y-103330819D01*
X134654762Y-103330819D02*
X134559524Y-103283200D01*
X134559524Y-103283200D02*
X134511905Y-103235580D01*
X151466667Y-103283200D02*
X151609524Y-103330819D01*
X151609524Y-103330819D02*
X151847619Y-103330819D01*
X151847619Y-103330819D02*
X151942857Y-103283200D01*
X151942857Y-103283200D02*
X151990476Y-103235580D01*
X151990476Y-103235580D02*
X152038095Y-103140342D01*
X152038095Y-103140342D02*
X152038095Y-103045104D01*
X152038095Y-103045104D02*
X151990476Y-102949866D01*
X151990476Y-102949866D02*
X151942857Y-102902247D01*
X151942857Y-102902247D02*
X151847619Y-102854628D01*
X151847619Y-102854628D02*
X151657143Y-102807009D01*
X151657143Y-102807009D02*
X151561905Y-102759390D01*
X151561905Y-102759390D02*
X151514286Y-102711771D01*
X151514286Y-102711771D02*
X151466667Y-102616533D01*
X151466667Y-102616533D02*
X151466667Y-102521295D01*
X151466667Y-102521295D02*
X151514286Y-102426057D01*
X151514286Y-102426057D02*
X151561905Y-102378438D01*
X151561905Y-102378438D02*
X151657143Y-102330819D01*
X151657143Y-102330819D02*
X151895238Y-102330819D01*
X151895238Y-102330819D02*
X152038095Y-102378438D01*
X152371429Y-102330819D02*
X152609524Y-103330819D01*
X152609524Y-103330819D02*
X152800000Y-102616533D01*
X152800000Y-102616533D02*
X152990476Y-103330819D01*
X152990476Y-103330819D02*
X153228572Y-102330819D01*
X154038095Y-102330819D02*
X153847619Y-102330819D01*
X153847619Y-102330819D02*
X153752381Y-102378438D01*
X153752381Y-102378438D02*
X153704762Y-102426057D01*
X153704762Y-102426057D02*
X153609524Y-102568914D01*
X153609524Y-102568914D02*
X153561905Y-102759390D01*
X153561905Y-102759390D02*
X153561905Y-103140342D01*
X153561905Y-103140342D02*
X153609524Y-103235580D01*
X153609524Y-103235580D02*
X153657143Y-103283200D01*
X153657143Y-103283200D02*
X153752381Y-103330819D01*
X153752381Y-103330819D02*
X153942857Y-103330819D01*
X153942857Y-103330819D02*
X154038095Y-103283200D01*
X154038095Y-103283200D02*
X154085714Y-103235580D01*
X154085714Y-103235580D02*
X154133333Y-103140342D01*
X154133333Y-103140342D02*
X154133333Y-102902247D01*
X154133333Y-102902247D02*
X154085714Y-102807009D01*
X154085714Y-102807009D02*
X154038095Y-102759390D01*
X154038095Y-102759390D02*
X153942857Y-102711771D01*
X153942857Y-102711771D02*
X153752381Y-102711771D01*
X153752381Y-102711771D02*
X153657143Y-102759390D01*
X153657143Y-102759390D02*
X153609524Y-102807009D01*
X153609524Y-102807009D02*
X153561905Y-102902247D01*
X101462259Y-72735416D02*
X101509878Y-72592559D01*
X101509878Y-72592559D02*
X101557497Y-72544940D01*
X101557497Y-72544940D02*
X101652735Y-72497321D01*
X101652735Y-72497321D02*
X101795592Y-72497321D01*
X101795592Y-72497321D02*
X101890830Y-72544940D01*
X101890830Y-72544940D02*
X101938450Y-72592559D01*
X101938450Y-72592559D02*
X101986069Y-72687797D01*
X101986069Y-72687797D02*
X101986069Y-73068749D01*
X101986069Y-73068749D02*
X100986069Y-73068749D01*
X100986069Y-73068749D02*
X100986069Y-72735416D01*
X100986069Y-72735416D02*
X101033688Y-72640178D01*
X101033688Y-72640178D02*
X101081307Y-72592559D01*
X101081307Y-72592559D02*
X101176545Y-72544940D01*
X101176545Y-72544940D02*
X101271783Y-72544940D01*
X101271783Y-72544940D02*
X101367021Y-72592559D01*
X101367021Y-72592559D02*
X101414640Y-72640178D01*
X101414640Y-72640178D02*
X101462259Y-72735416D01*
X101462259Y-72735416D02*
X101462259Y-73068749D01*
X101986069Y-72068749D02*
X101319402Y-72068749D01*
X101509878Y-72068749D02*
X101414640Y-72021130D01*
X101414640Y-72021130D02*
X101367021Y-71973511D01*
X101367021Y-71973511D02*
X101319402Y-71878273D01*
X101319402Y-71878273D02*
X101319402Y-71783035D01*
X101986069Y-71021130D02*
X100986069Y-71021130D01*
X101938450Y-71021130D02*
X101986069Y-71116368D01*
X101986069Y-71116368D02*
X101986069Y-71306844D01*
X101986069Y-71306844D02*
X101938450Y-71402082D01*
X101938450Y-71402082D02*
X101890830Y-71449701D01*
X101890830Y-71449701D02*
X101795592Y-71497320D01*
X101795592Y-71497320D02*
X101509878Y-71497320D01*
X101509878Y-71497320D02*
X101414640Y-71449701D01*
X101414640Y-71449701D02*
X101367021Y-71402082D01*
X101367021Y-71402082D02*
X101319402Y-71306844D01*
X101319402Y-71306844D02*
X101319402Y-71116368D01*
X101319402Y-71116368D02*
X101367021Y-71021130D01*
X101986069Y-70021130D02*
X101986069Y-70592558D01*
X101986069Y-70306844D02*
X100986069Y-70306844D01*
X100986069Y-70306844D02*
X101128926Y-70402082D01*
X101128926Y-70402082D02*
X101224164Y-70497320D01*
X101224164Y-70497320D02*
X101271783Y-70592558D01*
X133924200Y-76379463D02*
X133962295Y-76272321D01*
X133962295Y-76272321D02*
X133962295Y-76093749D01*
X133962295Y-76093749D02*
X133924200Y-76022321D01*
X133924200Y-76022321D02*
X133886104Y-75986606D01*
X133886104Y-75986606D02*
X133809914Y-75950892D01*
X133809914Y-75950892D02*
X133733723Y-75950892D01*
X133733723Y-75950892D02*
X133657533Y-75986606D01*
X133657533Y-75986606D02*
X133619438Y-76022321D01*
X133619438Y-76022321D02*
X133581342Y-76093749D01*
X133581342Y-76093749D02*
X133543247Y-76236606D01*
X133543247Y-76236606D02*
X133505152Y-76308035D01*
X133505152Y-76308035D02*
X133467057Y-76343749D01*
X133467057Y-76343749D02*
X133390866Y-76379463D01*
X133390866Y-76379463D02*
X133314676Y-76379463D01*
X133314676Y-76379463D02*
X133238485Y-76343749D01*
X133238485Y-76343749D02*
X133200390Y-76308035D01*
X133200390Y-76308035D02*
X133162295Y-76236606D01*
X133162295Y-76236606D02*
X133162295Y-76058035D01*
X133162295Y-76058035D02*
X133200390Y-75950892D01*
X133962295Y-75629463D02*
X133162295Y-75629463D01*
X133162295Y-75629463D02*
X133162295Y-75450892D01*
X133162295Y-75450892D02*
X133200390Y-75343749D01*
X133200390Y-75343749D02*
X133276580Y-75272320D01*
X133276580Y-75272320D02*
X133352771Y-75236606D01*
X133352771Y-75236606D02*
X133505152Y-75200892D01*
X133505152Y-75200892D02*
X133619438Y-75200892D01*
X133619438Y-75200892D02*
X133771819Y-75236606D01*
X133771819Y-75236606D02*
X133848009Y-75272320D01*
X133848009Y-75272320D02*
X133924200Y-75343749D01*
X133924200Y-75343749D02*
X133962295Y-75450892D01*
X133962295Y-75450892D02*
X133962295Y-75629463D01*
X133733723Y-74915177D02*
X133733723Y-74558035D01*
X133962295Y-74986606D02*
X133162295Y-74736606D01*
X133162295Y-74736606D02*
X133962295Y-74486606D01*
X133162295Y-71388749D02*
X133962295Y-71138749D01*
X133962295Y-71138749D02*
X133162295Y-70888749D01*
X133886104Y-70210178D02*
X133924200Y-70245892D01*
X133924200Y-70245892D02*
X133962295Y-70353035D01*
X133962295Y-70353035D02*
X133962295Y-70424463D01*
X133962295Y-70424463D02*
X133924200Y-70531606D01*
X133924200Y-70531606D02*
X133848009Y-70603035D01*
X133848009Y-70603035D02*
X133771819Y-70638749D01*
X133771819Y-70638749D02*
X133619438Y-70674463D01*
X133619438Y-70674463D02*
X133505152Y-70674463D01*
X133505152Y-70674463D02*
X133352771Y-70638749D01*
X133352771Y-70638749D02*
X133276580Y-70603035D01*
X133276580Y-70603035D02*
X133200390Y-70531606D01*
X133200390Y-70531606D02*
X133162295Y-70424463D01*
X133162295Y-70424463D02*
X133162295Y-70353035D01*
X133162295Y-70353035D02*
X133200390Y-70245892D01*
X133200390Y-70245892D02*
X133238485Y-70210178D01*
X133886104Y-69460178D02*
X133924200Y-69495892D01*
X133924200Y-69495892D02*
X133962295Y-69603035D01*
X133962295Y-69603035D02*
X133962295Y-69674463D01*
X133962295Y-69674463D02*
X133924200Y-69781606D01*
X133924200Y-69781606D02*
X133848009Y-69853035D01*
X133848009Y-69853035D02*
X133771819Y-69888749D01*
X133771819Y-69888749D02*
X133619438Y-69924463D01*
X133619438Y-69924463D02*
X133505152Y-69924463D01*
X133505152Y-69924463D02*
X133352771Y-69888749D01*
X133352771Y-69888749D02*
X133276580Y-69853035D01*
X133276580Y-69853035D02*
X133200390Y-69781606D01*
X133200390Y-69781606D02*
X133162295Y-69674463D01*
X133162295Y-69674463D02*
X133162295Y-69603035D01*
X133162295Y-69603035D02*
X133200390Y-69495892D01*
X133200390Y-69495892D02*
X133238485Y-69460178D01*
X114702678Y-71113569D02*
X114893154Y-71113569D01*
X114893154Y-71113569D02*
X114988392Y-71161188D01*
X114988392Y-71161188D02*
X115083630Y-71256426D01*
X115083630Y-71256426D02*
X115131249Y-71446902D01*
X115131249Y-71446902D02*
X115131249Y-71780235D01*
X115131249Y-71780235D02*
X115083630Y-71970711D01*
X115083630Y-71970711D02*
X114988392Y-72065950D01*
X114988392Y-72065950D02*
X114893154Y-72113569D01*
X114893154Y-72113569D02*
X114702678Y-72113569D01*
X114702678Y-72113569D02*
X114607440Y-72065950D01*
X114607440Y-72065950D02*
X114512202Y-71970711D01*
X114512202Y-71970711D02*
X114464583Y-71780235D01*
X114464583Y-71780235D02*
X114464583Y-71446902D01*
X114464583Y-71446902D02*
X114512202Y-71256426D01*
X114512202Y-71256426D02*
X114607440Y-71161188D01*
X114607440Y-71161188D02*
X114702678Y-71113569D01*
X116036011Y-72113569D02*
X115559821Y-72113569D01*
X115559821Y-72113569D02*
X115559821Y-71113569D01*
X116369345Y-71589759D02*
X116702678Y-71589759D01*
X116845535Y-72113569D02*
X116369345Y-72113569D01*
X116369345Y-72113569D02*
X116369345Y-71113569D01*
X116369345Y-71113569D02*
X116845535Y-71113569D01*
X117274107Y-72113569D02*
X117274107Y-71113569D01*
X117274107Y-71113569D02*
X117512202Y-71113569D01*
X117512202Y-71113569D02*
X117655059Y-71161188D01*
X117655059Y-71161188D02*
X117750297Y-71256426D01*
X117750297Y-71256426D02*
X117797916Y-71351664D01*
X117797916Y-71351664D02*
X117845535Y-71542140D01*
X117845535Y-71542140D02*
X117845535Y-71684997D01*
X117845535Y-71684997D02*
X117797916Y-71875473D01*
X117797916Y-71875473D02*
X117750297Y-71970711D01*
X117750297Y-71970711D02*
X117655059Y-72065950D01*
X117655059Y-72065950D02*
X117512202Y-72113569D01*
X117512202Y-72113569D02*
X117274107Y-72113569D01*
X119036012Y-72113569D02*
X119036012Y-71113569D01*
X119036012Y-71113569D02*
X119416964Y-71113569D01*
X119416964Y-71113569D02*
X119512202Y-71161188D01*
X119512202Y-71161188D02*
X119559821Y-71208807D01*
X119559821Y-71208807D02*
X119607440Y-71304045D01*
X119607440Y-71304045D02*
X119607440Y-71446902D01*
X119607440Y-71446902D02*
X119559821Y-71542140D01*
X119559821Y-71542140D02*
X119512202Y-71589759D01*
X119512202Y-71589759D02*
X119416964Y-71637378D01*
X119416964Y-71637378D02*
X119036012Y-71637378D01*
X120464583Y-72113569D02*
X120464583Y-71589759D01*
X120464583Y-71589759D02*
X120416964Y-71494521D01*
X120416964Y-71494521D02*
X120321726Y-71446902D01*
X120321726Y-71446902D02*
X120131250Y-71446902D01*
X120131250Y-71446902D02*
X120036012Y-71494521D01*
X120464583Y-72065950D02*
X120369345Y-72113569D01*
X120369345Y-72113569D02*
X120131250Y-72113569D01*
X120131250Y-72113569D02*
X120036012Y-72065950D01*
X120036012Y-72065950D02*
X119988393Y-71970711D01*
X119988393Y-71970711D02*
X119988393Y-71875473D01*
X119988393Y-71875473D02*
X120036012Y-71780235D01*
X120036012Y-71780235D02*
X120131250Y-71732616D01*
X120131250Y-71732616D02*
X120369345Y-71732616D01*
X120369345Y-71732616D02*
X120464583Y-71684997D01*
X120940774Y-71446902D02*
X120940774Y-72113569D01*
X120940774Y-71542140D02*
X120988393Y-71494521D01*
X120988393Y-71494521D02*
X121083631Y-71446902D01*
X121083631Y-71446902D02*
X121226488Y-71446902D01*
X121226488Y-71446902D02*
X121321726Y-71494521D01*
X121321726Y-71494521D02*
X121369345Y-71589759D01*
X121369345Y-71589759D02*
X121369345Y-72113569D01*
X122226488Y-72065950D02*
X122131250Y-72113569D01*
X122131250Y-72113569D02*
X121940774Y-72113569D01*
X121940774Y-72113569D02*
X121845536Y-72065950D01*
X121845536Y-72065950D02*
X121797917Y-71970711D01*
X121797917Y-71970711D02*
X121797917Y-71589759D01*
X121797917Y-71589759D02*
X121845536Y-71494521D01*
X121845536Y-71494521D02*
X121940774Y-71446902D01*
X121940774Y-71446902D02*
X122131250Y-71446902D01*
X122131250Y-71446902D02*
X122226488Y-71494521D01*
X122226488Y-71494521D02*
X122274107Y-71589759D01*
X122274107Y-71589759D02*
X122274107Y-71684997D01*
X122274107Y-71684997D02*
X121797917Y-71780235D01*
X122845536Y-72113569D02*
X122750298Y-72065950D01*
X122750298Y-72065950D02*
X122702679Y-71970711D01*
X122702679Y-71970711D02*
X122702679Y-71113569D01*
X133924200Y-73821606D02*
X133962295Y-73714464D01*
X133962295Y-73714464D02*
X133962295Y-73535892D01*
X133962295Y-73535892D02*
X133924200Y-73464464D01*
X133924200Y-73464464D02*
X133886104Y-73428749D01*
X133886104Y-73428749D02*
X133809914Y-73393035D01*
X133809914Y-73393035D02*
X133733723Y-73393035D01*
X133733723Y-73393035D02*
X133657533Y-73428749D01*
X133657533Y-73428749D02*
X133619438Y-73464464D01*
X133619438Y-73464464D02*
X133581342Y-73535892D01*
X133581342Y-73535892D02*
X133543247Y-73678749D01*
X133543247Y-73678749D02*
X133505152Y-73750178D01*
X133505152Y-73750178D02*
X133467057Y-73785892D01*
X133467057Y-73785892D02*
X133390866Y-73821606D01*
X133390866Y-73821606D02*
X133314676Y-73821606D01*
X133314676Y-73821606D02*
X133238485Y-73785892D01*
X133238485Y-73785892D02*
X133200390Y-73750178D01*
X133200390Y-73750178D02*
X133162295Y-73678749D01*
X133162295Y-73678749D02*
X133162295Y-73500178D01*
X133162295Y-73500178D02*
X133200390Y-73393035D01*
X133886104Y-72643035D02*
X133924200Y-72678749D01*
X133924200Y-72678749D02*
X133962295Y-72785892D01*
X133962295Y-72785892D02*
X133962295Y-72857320D01*
X133962295Y-72857320D02*
X133924200Y-72964463D01*
X133924200Y-72964463D02*
X133848009Y-73035892D01*
X133848009Y-73035892D02*
X133771819Y-73071606D01*
X133771819Y-73071606D02*
X133619438Y-73107320D01*
X133619438Y-73107320D02*
X133505152Y-73107320D01*
X133505152Y-73107320D02*
X133352771Y-73071606D01*
X133352771Y-73071606D02*
X133276580Y-73035892D01*
X133276580Y-73035892D02*
X133200390Y-72964463D01*
X133200390Y-72964463D02*
X133162295Y-72857320D01*
X133162295Y-72857320D02*
X133162295Y-72785892D01*
X133162295Y-72785892D02*
X133200390Y-72678749D01*
X133200390Y-72678749D02*
X133238485Y-72643035D01*
X133962295Y-71964463D02*
X133962295Y-72321606D01*
X133962295Y-72321606D02*
X133162295Y-72321606D01*
X133200390Y-68420178D02*
X133162295Y-68491607D01*
X133162295Y-68491607D02*
X133162295Y-68598749D01*
X133162295Y-68598749D02*
X133200390Y-68705892D01*
X133200390Y-68705892D02*
X133276580Y-68777321D01*
X133276580Y-68777321D02*
X133352771Y-68813035D01*
X133352771Y-68813035D02*
X133505152Y-68848749D01*
X133505152Y-68848749D02*
X133619438Y-68848749D01*
X133619438Y-68848749D02*
X133771819Y-68813035D01*
X133771819Y-68813035D02*
X133848009Y-68777321D01*
X133848009Y-68777321D02*
X133924200Y-68705892D01*
X133924200Y-68705892D02*
X133962295Y-68598749D01*
X133962295Y-68598749D02*
X133962295Y-68527321D01*
X133962295Y-68527321D02*
X133924200Y-68420178D01*
X133924200Y-68420178D02*
X133886104Y-68384464D01*
X133886104Y-68384464D02*
X133619438Y-68384464D01*
X133619438Y-68384464D02*
X133619438Y-68527321D01*
X133962295Y-68063035D02*
X133162295Y-68063035D01*
X133162295Y-68063035D02*
X133962295Y-67634464D01*
X133962295Y-67634464D02*
X133162295Y-67634464D01*
X133962295Y-67277321D02*
X133162295Y-67277321D01*
X133162295Y-67277321D02*
X133162295Y-67098750D01*
X133162295Y-67098750D02*
X133200390Y-66991607D01*
X133200390Y-66991607D02*
X133276580Y-66920178D01*
X133276580Y-66920178D02*
X133352771Y-66884464D01*
X133352771Y-66884464D02*
X133505152Y-66848750D01*
X133505152Y-66848750D02*
X133619438Y-66848750D01*
X133619438Y-66848750D02*
X133771819Y-66884464D01*
X133771819Y-66884464D02*
X133848009Y-66920178D01*
X133848009Y-66920178D02*
X133924200Y-66991607D01*
X133924200Y-66991607D02*
X133962295Y-67098750D01*
X133962295Y-67098750D02*
X133962295Y-67277321D01*
X151466667Y-84233200D02*
X151609524Y-84280819D01*
X151609524Y-84280819D02*
X151847619Y-84280819D01*
X151847619Y-84280819D02*
X151942857Y-84233200D01*
X151942857Y-84233200D02*
X151990476Y-84185580D01*
X151990476Y-84185580D02*
X152038095Y-84090342D01*
X152038095Y-84090342D02*
X152038095Y-83995104D01*
X152038095Y-83995104D02*
X151990476Y-83899866D01*
X151990476Y-83899866D02*
X151942857Y-83852247D01*
X151942857Y-83852247D02*
X151847619Y-83804628D01*
X151847619Y-83804628D02*
X151657143Y-83757009D01*
X151657143Y-83757009D02*
X151561905Y-83709390D01*
X151561905Y-83709390D02*
X151514286Y-83661771D01*
X151514286Y-83661771D02*
X151466667Y-83566533D01*
X151466667Y-83566533D02*
X151466667Y-83471295D01*
X151466667Y-83471295D02*
X151514286Y-83376057D01*
X151514286Y-83376057D02*
X151561905Y-83328438D01*
X151561905Y-83328438D02*
X151657143Y-83280819D01*
X151657143Y-83280819D02*
X151895238Y-83280819D01*
X151895238Y-83280819D02*
X152038095Y-83328438D01*
X152371429Y-83280819D02*
X152609524Y-84280819D01*
X152609524Y-84280819D02*
X152800000Y-83566533D01*
X152800000Y-83566533D02*
X152990476Y-84280819D01*
X152990476Y-84280819D02*
X153228572Y-83280819D01*
X153657143Y-84280819D02*
X153847619Y-84280819D01*
X153847619Y-84280819D02*
X153942857Y-84233200D01*
X153942857Y-84233200D02*
X153990476Y-84185580D01*
X153990476Y-84185580D02*
X154085714Y-84042723D01*
X154085714Y-84042723D02*
X154133333Y-83852247D01*
X154133333Y-83852247D02*
X154133333Y-83471295D01*
X154133333Y-83471295D02*
X154085714Y-83376057D01*
X154085714Y-83376057D02*
X154038095Y-83328438D01*
X154038095Y-83328438D02*
X153942857Y-83280819D01*
X153942857Y-83280819D02*
X153752381Y-83280819D01*
X153752381Y-83280819D02*
X153657143Y-83328438D01*
X153657143Y-83328438D02*
X153609524Y-83376057D01*
X153609524Y-83376057D02*
X153561905Y-83471295D01*
X153561905Y-83471295D02*
X153561905Y-83709390D01*
X153561905Y-83709390D02*
X153609524Y-83804628D01*
X153609524Y-83804628D02*
X153657143Y-83852247D01*
X153657143Y-83852247D02*
X153752381Y-83899866D01*
X153752381Y-83899866D02*
X153942857Y-83899866D01*
X153942857Y-83899866D02*
X154038095Y-83852247D01*
X154038095Y-83852247D02*
X154085714Y-83804628D01*
X154085714Y-83804628D02*
X154133333Y-83709390D01*
X113366667Y-122333200D02*
X113509524Y-122380819D01*
X113509524Y-122380819D02*
X113747619Y-122380819D01*
X113747619Y-122380819D02*
X113842857Y-122333200D01*
X113842857Y-122333200D02*
X113890476Y-122285580D01*
X113890476Y-122285580D02*
X113938095Y-122190342D01*
X113938095Y-122190342D02*
X113938095Y-122095104D01*
X113938095Y-122095104D02*
X113890476Y-121999866D01*
X113890476Y-121999866D02*
X113842857Y-121952247D01*
X113842857Y-121952247D02*
X113747619Y-121904628D01*
X113747619Y-121904628D02*
X113557143Y-121857009D01*
X113557143Y-121857009D02*
X113461905Y-121809390D01*
X113461905Y-121809390D02*
X113414286Y-121761771D01*
X113414286Y-121761771D02*
X113366667Y-121666533D01*
X113366667Y-121666533D02*
X113366667Y-121571295D01*
X113366667Y-121571295D02*
X113414286Y-121476057D01*
X113414286Y-121476057D02*
X113461905Y-121428438D01*
X113461905Y-121428438D02*
X113557143Y-121380819D01*
X113557143Y-121380819D02*
X113795238Y-121380819D01*
X113795238Y-121380819D02*
X113938095Y-121428438D01*
X114271429Y-121380819D02*
X114509524Y-122380819D01*
X114509524Y-122380819D02*
X114700000Y-121666533D01*
X114700000Y-121666533D02*
X114890476Y-122380819D01*
X114890476Y-122380819D02*
X115128572Y-121380819D01*
X116033333Y-122380819D02*
X115461905Y-122380819D01*
X115747619Y-122380819D02*
X115747619Y-121380819D01*
X115747619Y-121380819D02*
X115652381Y-121523676D01*
X115652381Y-121523676D02*
X115557143Y-121618914D01*
X115557143Y-121618914D02*
X115461905Y-121666533D01*
X132416667Y-84233200D02*
X132559524Y-84280819D01*
X132559524Y-84280819D02*
X132797619Y-84280819D01*
X132797619Y-84280819D02*
X132892857Y-84233200D01*
X132892857Y-84233200D02*
X132940476Y-84185580D01*
X132940476Y-84185580D02*
X132988095Y-84090342D01*
X132988095Y-84090342D02*
X132988095Y-83995104D01*
X132988095Y-83995104D02*
X132940476Y-83899866D01*
X132940476Y-83899866D02*
X132892857Y-83852247D01*
X132892857Y-83852247D02*
X132797619Y-83804628D01*
X132797619Y-83804628D02*
X132607143Y-83757009D01*
X132607143Y-83757009D02*
X132511905Y-83709390D01*
X132511905Y-83709390D02*
X132464286Y-83661771D01*
X132464286Y-83661771D02*
X132416667Y-83566533D01*
X132416667Y-83566533D02*
X132416667Y-83471295D01*
X132416667Y-83471295D02*
X132464286Y-83376057D01*
X132464286Y-83376057D02*
X132511905Y-83328438D01*
X132511905Y-83328438D02*
X132607143Y-83280819D01*
X132607143Y-83280819D02*
X132845238Y-83280819D01*
X132845238Y-83280819D02*
X132988095Y-83328438D01*
X133321429Y-83280819D02*
X133559524Y-84280819D01*
X133559524Y-84280819D02*
X133750000Y-83566533D01*
X133750000Y-83566533D02*
X133940476Y-84280819D01*
X133940476Y-84280819D02*
X134178572Y-83280819D01*
X134702381Y-83709390D02*
X134607143Y-83661771D01*
X134607143Y-83661771D02*
X134559524Y-83614152D01*
X134559524Y-83614152D02*
X134511905Y-83518914D01*
X134511905Y-83518914D02*
X134511905Y-83471295D01*
X134511905Y-83471295D02*
X134559524Y-83376057D01*
X134559524Y-83376057D02*
X134607143Y-83328438D01*
X134607143Y-83328438D02*
X134702381Y-83280819D01*
X134702381Y-83280819D02*
X134892857Y-83280819D01*
X134892857Y-83280819D02*
X134988095Y-83328438D01*
X134988095Y-83328438D02*
X135035714Y-83376057D01*
X135035714Y-83376057D02*
X135083333Y-83471295D01*
X135083333Y-83471295D02*
X135083333Y-83518914D01*
X135083333Y-83518914D02*
X135035714Y-83614152D01*
X135035714Y-83614152D02*
X134988095Y-83661771D01*
X134988095Y-83661771D02*
X134892857Y-83709390D01*
X134892857Y-83709390D02*
X134702381Y-83709390D01*
X134702381Y-83709390D02*
X134607143Y-83757009D01*
X134607143Y-83757009D02*
X134559524Y-83804628D01*
X134559524Y-83804628D02*
X134511905Y-83899866D01*
X134511905Y-83899866D02*
X134511905Y-84090342D01*
X134511905Y-84090342D02*
X134559524Y-84185580D01*
X134559524Y-84185580D02*
X134607143Y-84233200D01*
X134607143Y-84233200D02*
X134702381Y-84280819D01*
X134702381Y-84280819D02*
X134892857Y-84280819D01*
X134892857Y-84280819D02*
X134988095Y-84233200D01*
X134988095Y-84233200D02*
X135035714Y-84185580D01*
X135035714Y-84185580D02*
X135083333Y-84090342D01*
X135083333Y-84090342D02*
X135083333Y-83899866D01*
X135083333Y-83899866D02*
X135035714Y-83804628D01*
X135035714Y-83804628D02*
X134988095Y-83757009D01*
X134988095Y-83757009D02*
X134892857Y-83709390D01*
X113366667Y-84233200D02*
X113509524Y-84280819D01*
X113509524Y-84280819D02*
X113747619Y-84280819D01*
X113747619Y-84280819D02*
X113842857Y-84233200D01*
X113842857Y-84233200D02*
X113890476Y-84185580D01*
X113890476Y-84185580D02*
X113938095Y-84090342D01*
X113938095Y-84090342D02*
X113938095Y-83995104D01*
X113938095Y-83995104D02*
X113890476Y-83899866D01*
X113890476Y-83899866D02*
X113842857Y-83852247D01*
X113842857Y-83852247D02*
X113747619Y-83804628D01*
X113747619Y-83804628D02*
X113557143Y-83757009D01*
X113557143Y-83757009D02*
X113461905Y-83709390D01*
X113461905Y-83709390D02*
X113414286Y-83661771D01*
X113414286Y-83661771D02*
X113366667Y-83566533D01*
X113366667Y-83566533D02*
X113366667Y-83471295D01*
X113366667Y-83471295D02*
X113414286Y-83376057D01*
X113414286Y-83376057D02*
X113461905Y-83328438D01*
X113461905Y-83328438D02*
X113557143Y-83280819D01*
X113557143Y-83280819D02*
X113795238Y-83280819D01*
X113795238Y-83280819D02*
X113938095Y-83328438D01*
X114271429Y-83280819D02*
X114509524Y-84280819D01*
X114509524Y-84280819D02*
X114700000Y-83566533D01*
X114700000Y-83566533D02*
X114890476Y-84280819D01*
X114890476Y-84280819D02*
X115128572Y-83280819D01*
X115414286Y-83280819D02*
X116080952Y-83280819D01*
X116080952Y-83280819D02*
X115652381Y-84280819D01*
X151466667Y-122333200D02*
X151609524Y-122380819D01*
X151609524Y-122380819D02*
X151847619Y-122380819D01*
X151847619Y-122380819D02*
X151942857Y-122333200D01*
X151942857Y-122333200D02*
X151990476Y-122285580D01*
X151990476Y-122285580D02*
X152038095Y-122190342D01*
X152038095Y-122190342D02*
X152038095Y-122095104D01*
X152038095Y-122095104D02*
X151990476Y-121999866D01*
X151990476Y-121999866D02*
X151942857Y-121952247D01*
X151942857Y-121952247D02*
X151847619Y-121904628D01*
X151847619Y-121904628D02*
X151657143Y-121857009D01*
X151657143Y-121857009D02*
X151561905Y-121809390D01*
X151561905Y-121809390D02*
X151514286Y-121761771D01*
X151514286Y-121761771D02*
X151466667Y-121666533D01*
X151466667Y-121666533D02*
X151466667Y-121571295D01*
X151466667Y-121571295D02*
X151514286Y-121476057D01*
X151514286Y-121476057D02*
X151561905Y-121428438D01*
X151561905Y-121428438D02*
X151657143Y-121380819D01*
X151657143Y-121380819D02*
X151895238Y-121380819D01*
X151895238Y-121380819D02*
X152038095Y-121428438D01*
X152371429Y-121380819D02*
X152609524Y-122380819D01*
X152609524Y-122380819D02*
X152800000Y-121666533D01*
X152800000Y-121666533D02*
X152990476Y-122380819D01*
X152990476Y-122380819D02*
X153228572Y-121380819D01*
X153514286Y-121380819D02*
X154133333Y-121380819D01*
X154133333Y-121380819D02*
X153800000Y-121761771D01*
X153800000Y-121761771D02*
X153942857Y-121761771D01*
X153942857Y-121761771D02*
X154038095Y-121809390D01*
X154038095Y-121809390D02*
X154085714Y-121857009D01*
X154085714Y-121857009D02*
X154133333Y-121952247D01*
X154133333Y-121952247D02*
X154133333Y-122190342D01*
X154133333Y-122190342D02*
X154085714Y-122285580D01*
X154085714Y-122285580D02*
X154038095Y-122333200D01*
X154038095Y-122333200D02*
X153942857Y-122380819D01*
X153942857Y-122380819D02*
X153657143Y-122380819D01*
X153657143Y-122380819D02*
X153561905Y-122333200D01*
X153561905Y-122333200D02*
X153514286Y-122285580D01*
D12*
X145916190Y-61964811D02*
X145916190Y-62612430D01*
X145916190Y-62612430D02*
X145946428Y-62688620D01*
X145946428Y-62688620D02*
X145976666Y-62726716D01*
X145976666Y-62726716D02*
X146037142Y-62764811D01*
X146037142Y-62764811D02*
X146158095Y-62764811D01*
X146158095Y-62764811D02*
X146218571Y-62726716D01*
X146218571Y-62726716D02*
X146248809Y-62688620D01*
X146248809Y-62688620D02*
X146279047Y-62612430D01*
X146279047Y-62612430D02*
X146279047Y-61964811D01*
X146914047Y-62764811D02*
X146551190Y-62764811D01*
X146732618Y-62764811D02*
X146732618Y-61964811D01*
X146732618Y-61964811D02*
X146672142Y-62079096D01*
X146672142Y-62079096D02*
X146611666Y-62155287D01*
X146611666Y-62155287D02*
X146551190Y-62193382D01*
D11*
X132416667Y-122333200D02*
X132559524Y-122380819D01*
X132559524Y-122380819D02*
X132797619Y-122380819D01*
X132797619Y-122380819D02*
X132892857Y-122333200D01*
X132892857Y-122333200D02*
X132940476Y-122285580D01*
X132940476Y-122285580D02*
X132988095Y-122190342D01*
X132988095Y-122190342D02*
X132988095Y-122095104D01*
X132988095Y-122095104D02*
X132940476Y-121999866D01*
X132940476Y-121999866D02*
X132892857Y-121952247D01*
X132892857Y-121952247D02*
X132797619Y-121904628D01*
X132797619Y-121904628D02*
X132607143Y-121857009D01*
X132607143Y-121857009D02*
X132511905Y-121809390D01*
X132511905Y-121809390D02*
X132464286Y-121761771D01*
X132464286Y-121761771D02*
X132416667Y-121666533D01*
X132416667Y-121666533D02*
X132416667Y-121571295D01*
X132416667Y-121571295D02*
X132464286Y-121476057D01*
X132464286Y-121476057D02*
X132511905Y-121428438D01*
X132511905Y-121428438D02*
X132607143Y-121380819D01*
X132607143Y-121380819D02*
X132845238Y-121380819D01*
X132845238Y-121380819D02*
X132988095Y-121428438D01*
X133321429Y-121380819D02*
X133559524Y-122380819D01*
X133559524Y-122380819D02*
X133750000Y-121666533D01*
X133750000Y-121666533D02*
X133940476Y-122380819D01*
X133940476Y-122380819D02*
X134178572Y-121380819D01*
X134511905Y-121476057D02*
X134559524Y-121428438D01*
X134559524Y-121428438D02*
X134654762Y-121380819D01*
X134654762Y-121380819D02*
X134892857Y-121380819D01*
X134892857Y-121380819D02*
X134988095Y-121428438D01*
X134988095Y-121428438D02*
X135035714Y-121476057D01*
X135035714Y-121476057D02*
X135083333Y-121571295D01*
X135083333Y-121571295D02*
X135083333Y-121666533D01*
X135083333Y-121666533D02*
X135035714Y-121809390D01*
X135035714Y-121809390D02*
X134464286Y-122380819D01*
X134464286Y-122380819D02*
X135083333Y-122380819D01*
D13*
%TO.C,SW4*%
X107715000Y-103765000D02*
X121685000Y-103765000D01*
X107715000Y-117735000D02*
X107715000Y-103765000D01*
X121685000Y-103765000D02*
X121685000Y-117735000D01*
X121685000Y-117735000D02*
X107715000Y-117735000D01*
%TO.C,SW5*%
X126765000Y-103765000D02*
X140735000Y-103765000D01*
X126765000Y-117735000D02*
X126765000Y-103765000D01*
X140735000Y-103765000D02*
X140735000Y-117735000D01*
X140735000Y-117735000D02*
X126765000Y-117735000D01*
%TO.C,SW6*%
X145815000Y-103765000D02*
X159785000Y-103765000D01*
X145815000Y-117735000D02*
X145815000Y-103765000D01*
X159785000Y-103765000D02*
X159785000Y-117735000D01*
X159785000Y-117735000D02*
X145815000Y-117735000D01*
D14*
%TO.C,Brd1*%
X99631250Y-65658750D02*
X99631250Y-77658750D01*
X99631250Y-77658750D02*
X137631250Y-77658750D01*
X103131250Y-65658750D02*
X103131250Y-77658750D01*
X132631250Y-65658750D02*
X132631250Y-77658750D01*
X137631250Y-65658750D02*
X99631250Y-65658750D01*
X137631250Y-77658750D02*
X137631250Y-65658750D01*
D13*
%TO.C,SW9*%
X145815000Y-84715000D02*
X159785000Y-84715000D01*
X145815000Y-98685000D02*
X145815000Y-84715000D01*
X159785000Y-84715000D02*
X159785000Y-98685000D01*
X159785000Y-98685000D02*
X145815000Y-98685000D01*
%TO.C,SW1*%
X107715000Y-122815000D02*
X121685000Y-122815000D01*
X107715000Y-136785000D02*
X107715000Y-122815000D01*
X121685000Y-122815000D02*
X121685000Y-136785000D01*
X121685000Y-136785000D02*
X107715000Y-136785000D01*
%TO.C,SW8*%
X126765000Y-84715000D02*
X140735000Y-84715000D01*
X126765000Y-98685000D02*
X126765000Y-84715000D01*
X140735000Y-84715000D02*
X140735000Y-98685000D01*
X140735000Y-98685000D02*
X126765000Y-98685000D01*
%TO.C,SW7*%
X107715000Y-84715000D02*
X121685000Y-84715000D01*
X107715000Y-98685000D02*
X107715000Y-84715000D01*
X121685000Y-84715000D02*
X121685000Y-98685000D01*
X121685000Y-98685000D02*
X107715000Y-98685000D01*
%TO.C,SW3*%
X145815000Y-122815000D02*
X159785000Y-122815000D01*
X145815000Y-136785000D02*
X145815000Y-122815000D01*
X159785000Y-122815000D02*
X159785000Y-136785000D01*
X159785000Y-136785000D02*
X145815000Y-136785000D01*
D15*
%TO.C,U1*%
X145191250Y-80962750D02*
X159161250Y-80962750D01*
X147681250Y-60007750D02*
X147684978Y-59097478D01*
X148184978Y-58597750D02*
X156180250Y-58597750D01*
X156680250Y-59097750D02*
X156680250Y-60007750D01*
D10*
X159161250Y-60007750D02*
X145191250Y-60007750D01*
D15*
X159161250Y-60007750D02*
X145191250Y-60007750D01*
X143286250Y-61912750D02*
G75*
G02*
X145191250Y-60007750I1905001J-1D01*
G01*
X145191250Y-80962750D02*
G75*
G02*
X143286250Y-79057750I1J1905001D01*
G01*
X147684978Y-59097478D02*
G75*
G02*
X148184978Y-58597751I500018J-291D01*
G01*
X156180250Y-58597750D02*
G75*
G02*
X156680250Y-59097750I0J-500000D01*
G01*
X159161250Y-60007750D02*
G75*
G02*
X161066250Y-61912750I0J-1905000D01*
G01*
X161066250Y-79057750D02*
G75*
G02*
X159161250Y-80962750I-1905000J0D01*
G01*
D16*
X143478250Y-60248750D02*
G75*
G02*
X142974250Y-60248750I-252000J0D01*
G01*
X142974250Y-60248750D02*
G75*
G02*
X143478250Y-60248750I252000J0D01*
G01*
X144621250Y-61128750D02*
G75*
G02*
X144117250Y-61128750I-252000J0D01*
G01*
X144117250Y-61128750D02*
G75*
G02*
X144621250Y-61128750I252000J0D01*
G01*
D13*
%TO.C,SW2*%
X126765000Y-122815000D02*
X140735000Y-122815000D01*
X126765000Y-136785000D02*
X126765000Y-122815000D01*
X140735000Y-122815000D02*
X140735000Y-136785000D01*
X140735000Y-136785000D02*
X126765000Y-136785000D01*
%TD*%
M02*
