M48
; DRILL file {KiCad 9.0.2} date 2025-06-15T18:17:54+0800
; FORMAT={-:-/ absolute / metric / decimal}
; #@! TF.CreationDate,2025-06-15T18:17:54+08:00
; #@! TF.GenerationSoftware,Kicad,Pcbnew,9.0.2
; #@! TF.FileFunction,Plated,1,2,PTH
FMAT,2
METRIC
; #@! TA.AperFunction,Plated,PTH,ViaDrill
T1C0.300
; #@! TA.AperFunction,Plated,PTH,ComponentDrill
T2C0.889
; #@! TA.AperFunction,Plated,PTH,ComponentDrill
T3C1.000
; #@! TA.AperFunction,Plated,PTH,ComponentDrill
T4C1.500
%
G90
G05
T1
X138.531Y-67.769
X139.7Y-80.9
X139.731Y-70.269
X139.731Y-79.369
X139.776Y-83.676
X139.931Y-81.769
X140.531Y-79.369
X140.553Y-70.296
X141.331Y-79.369
X141.391Y-70.306
X141.607Y-85.193
X142.131Y-71.769
X142.331Y-82.169
X143.531Y-80.969
X143.631Y-83.469
X144.256Y-81.469
X145.631Y-83.269
X147.4Y-83.0
T2
X144.556Y-62.929
X144.556Y-65.469
X144.556Y-68.009
X144.556Y-70.549
X144.556Y-73.089
X144.556Y-75.629
X144.556Y-78.169
X159.796Y-62.929
X159.796Y-65.469
X159.796Y-68.009
X159.796Y-70.549
X159.796Y-73.089
X159.796Y-75.629
X159.796Y-78.169
T3
X136.131Y-67.849
X136.131Y-70.389
X136.131Y-72.929
X136.131Y-75.469
T4
X110.89Y-89.16
X110.89Y-108.21
X110.89Y-127.26
X117.24Y-86.62
X117.24Y-105.67
X117.24Y-124.72
X129.94Y-89.16
X129.94Y-108.21
X129.94Y-127.26
X136.29Y-86.62
X136.29Y-105.67
X136.29Y-124.72
X148.99Y-89.16
X148.99Y-108.21
X148.99Y-127.26
X155.34Y-86.62
X155.34Y-105.67
X155.34Y-124.72
M30
