%TF.GenerationSoftware,KiCad,Pcbnew,9.0.2*%
%TF.CreationDate,2025-06-19T18:20:55+08:00*%
%TF.ProjectId,osuPad,6f737550-6164-42e6-9b69-6361645f7063,rev?*%
%TF.SameCoordinates,Original*%
%TF.FileFunction,Copper,L1,Top*%
%TF.FilePolarity,Positive*%
%FSLAX46Y46*%
G04 Gerber Fmt 4.6, Leading zero omitted, Abs format (unit mm)*
G04 Created by KiCad (PCBNEW 9.0.2) date 2025-06-19 18:20:55*
%MOMM*%
%LPD*%
G01*
G04 APERTURE LIST*
G04 Aperture macros list*
%AMRoundRect*
0 Rectangle with rounded corners*
0 $1 Rounding radius*
0 $2 $3 $4 $5 $6 $7 $8 $9 X,Y pos of 4 corners*
0 Add a 4 corners polygon primitive as box body*
4,1,4,$2,$3,$4,$5,$6,$7,$8,$9,$2,$3,0*
0 Add four circle primitives for the rounded corners*
1,1,$1+$1,$2,$3*
1,1,$1+$1,$4,$5*
1,1,$1+$1,$6,$7*
1,1,$1+$1,$8,$9*
0 Add four rect primitives between the rounded corners*
20,1,$1+$1,$2,$3,$4,$5,0*
20,1,$1+$1,$4,$5,$6,$7,0*
20,1,$1+$1,$6,$7,$8,$9,0*
20,1,$1+$1,$8,$9,$2,$3,0*%
G04 Aperture macros list end*
%TA.AperFunction,ComponentPad*%
%ADD10C,2.200000*%
%TD*%
%TA.AperFunction,ComponentPad*%
%ADD11R,1.700000X1.700000*%
%TD*%
%TA.AperFunction,ComponentPad*%
%ADD12O,1.700000X1.700000*%
%TD*%
%TA.AperFunction,SMDPad,CuDef*%
%ADD13RoundRect,0.152400X1.063600X0.609600X-1.063600X0.609600X-1.063600X-0.609600X1.063600X-0.609600X0*%
%TD*%
%TA.AperFunction,ComponentPad*%
%ADD14C,1.524000*%
%TD*%
%TA.AperFunction,SMDPad,CuDef*%
%ADD15RoundRect,0.152400X-1.063600X-0.609600X1.063600X-0.609600X1.063600X0.609600X-1.063600X0.609600X0*%
%TD*%
%TA.AperFunction,ViaPad*%
%ADD16C,0.600000*%
%TD*%
%TA.AperFunction,Conductor*%
%ADD17C,0.200000*%
%TD*%
G04 APERTURE END LIST*
D10*
%TO.P,SW4,1,1*%
%TO.N,GND*%
X117240000Y-105670000D03*
%TO.P,SW4,2,2*%
%TO.N,Net-(U1-GPIO29{slash}ADC3{slash}A3)*%
X110890000Y-108210000D03*
%TD*%
%TO.P,SW5,1,1*%
%TO.N,GND*%
X136290000Y-105670000D03*
%TO.P,SW5,2,2*%
%TO.N,Net-(U1-GPIO1{slash}RX)*%
X129940000Y-108210000D03*
%TD*%
%TO.P,SW6,1,1*%
%TO.N,GND*%
X155340000Y-105670000D03*
%TO.P,SW6,2,2*%
%TO.N,Net-(U1-GPIO2{slash}SCK)*%
X148990000Y-108210000D03*
%TD*%
D11*
%TO.P,Brd1,1,GND*%
%TO.N,GND*%
X136131250Y-67848750D03*
D12*
%TO.P,Brd1,2,VCC*%
%TO.N,+5V*%
X136131250Y-70388750D03*
%TO.P,Brd1,3,SCL*%
%TO.N,Net-(Brd1-SCL)*%
X136131250Y-72928750D03*
%TO.P,Brd1,4,SDA*%
%TO.N,Net-(Brd1-SDA)*%
X136131250Y-75468750D03*
%TD*%
D10*
%TO.P,SW9,1,1*%
%TO.N,GND*%
X155340000Y-86620000D03*
%TO.P,SW9,2,2*%
%TO.N,Net-(U1-GPIO0{slash}TX)*%
X148990000Y-89160000D03*
%TD*%
%TO.P,SW1,1,1*%
%TO.N,GND*%
X117240000Y-124720000D03*
%TO.P,SW1,2,2*%
%TO.N,Net-(U1-GPIO26{slash}ADC0{slash}A0)*%
X110890000Y-127260000D03*
%TD*%
%TO.P,SW8,1,1*%
%TO.N,GND*%
X136290000Y-86620000D03*
%TO.P,SW8,2,2*%
%TO.N,Net-(U1-GPIO3{slash}MOSI)*%
X129940000Y-89160000D03*
%TD*%
%TO.P,SW7,1,1*%
%TO.N,GND*%
X117240000Y-86620000D03*
%TO.P,SW7,2,2*%
%TO.N,Net-(U1-GPIO4{slash}MISO)*%
X110890000Y-89160000D03*
%TD*%
%TO.P,SW3,1,1*%
%TO.N,GND*%
X155340000Y-124720000D03*
%TO.P,SW3,2,2*%
%TO.N,Net-(U1-GPIO28{slash}ADC2{slash}A2)*%
X148990000Y-127260000D03*
%TD*%
D13*
%TO.P,U1,1,GPIO26/ADC0/A0*%
%TO.N,Net-(U1-GPIO26{slash}ADC0{slash}A0)*%
X143721250Y-62928750D03*
D14*
X144556250Y-62928750D03*
D13*
%TO.P,U1,2,GPIO27/ADC1/A1*%
%TO.N,Net-(U1-GPIO27{slash}ADC1{slash}A1)*%
X143721250Y-65468750D03*
D14*
X144556250Y-65468750D03*
D13*
%TO.P,U1,3,GPIO28/ADC2/A2*%
%TO.N,Net-(U1-GPIO28{slash}ADC2{slash}A2)*%
X143721250Y-68008750D03*
D14*
X144556250Y-68008750D03*
D13*
%TO.P,U1,4,GPIO29/ADC3/A3*%
%TO.N,Net-(U1-GPIO29{slash}ADC3{slash}A3)*%
X143721250Y-70548750D03*
D14*
X144556250Y-70548750D03*
D13*
%TO.P,U1,5,GPIO6/SDA*%
%TO.N,Net-(Brd1-SDA)*%
X143721250Y-73088750D03*
D14*
X144556250Y-73088750D03*
D13*
%TO.P,U1,6,GPIO7/SCL*%
%TO.N,Net-(Brd1-SCL)*%
X143721250Y-75628750D03*
D14*
X144556250Y-75628750D03*
D13*
%TO.P,U1,7,GPIO0/TX*%
%TO.N,Net-(U1-GPIO0{slash}TX)*%
X143721250Y-78168750D03*
D14*
X144556250Y-78168750D03*
%TO.P,U1,8,GPIO1/RX*%
%TO.N,Net-(U1-GPIO1{slash}RX)*%
X159796250Y-78168750D03*
D15*
X160631250Y-78168750D03*
D14*
%TO.P,U1,9,GPIO2/SCK*%
%TO.N,Net-(U1-GPIO2{slash}SCK)*%
X159796250Y-75628750D03*
D15*
X160631250Y-75628750D03*
D14*
%TO.P,U1,10,GPIO4/MISO*%
%TO.N,Net-(U1-GPIO4{slash}MISO)*%
X159796250Y-73088750D03*
D15*
X160631250Y-73088750D03*
D14*
%TO.P,U1,11,GPIO3/MOSI*%
%TO.N,Net-(U1-GPIO3{slash}MOSI)*%
X159796250Y-70548750D03*
D15*
X160631250Y-70548750D03*
D14*
%TO.P,U1,12,3V3*%
%TO.N,unconnected-(U1-3V3-Pad12)*%
X159796250Y-68008750D03*
D15*
X160631250Y-68008750D03*
D14*
%TO.P,U1,13,GND*%
%TO.N,GND*%
X159796250Y-65468750D03*
D15*
X160631250Y-65468750D03*
D14*
%TO.P,U1,14,VBUS*%
%TO.N,+5V*%
X159796250Y-62928750D03*
D15*
X160631250Y-62928750D03*
%TD*%
D10*
%TO.P,SW2,1,1*%
%TO.N,GND*%
X136290000Y-124720000D03*
%TO.P,SW2,2,2*%
%TO.N,Net-(U1-GPIO27{slash}ADC1{slash}A1)*%
X129940000Y-127260000D03*
%TD*%
D16*
%TO.N,GND*%
X138500000Y-78800000D03*
X138500000Y-72100000D03*
%TO.N,Net-(U1-GPIO29{slash}ADC3{slash}A3)*%
X139700000Y-80900000D03*
X142131250Y-79300000D03*
%TO.N,Net-(U1-GPIO1{slash}RX)*%
X139775735Y-83675735D03*
X143631250Y-83468750D03*
X145631250Y-83268750D03*
X141606985Y-85193015D03*
%TO.N,Net-(U1-GPIO4{slash}MISO)*%
X139931250Y-81768750D03*
X144255947Y-81468508D03*
%TO.N,Net-(U1-GPIO3{slash}MOSI)*%
X142331250Y-82168750D03*
X143531250Y-80968750D03*
%TO.N,Net-(U1-GPIO0{slash}TX)*%
X147400000Y-83000000D03*
%TD*%
D17*
%TO.N,+5V*%
X159931250Y-61268750D02*
X140131250Y-61268750D01*
X139331250Y-69168750D02*
X138111250Y-70388750D01*
X139331250Y-62068750D02*
X139331250Y-69168750D01*
X160631250Y-62928750D02*
X160631250Y-61968750D01*
X138111250Y-70388750D02*
X136131250Y-70388750D01*
X140131250Y-61268750D02*
X139331250Y-62068750D01*
X160631250Y-61968750D02*
X159931250Y-61268750D01*
%TO.N,GND*%
X138500000Y-78800000D02*
X138500000Y-72100000D01*
%TO.N,Net-(U1-GPIO26{slash}ADC0{slash}A0)*%
X141171250Y-62928750D02*
X140231250Y-63868750D01*
X143721250Y-62928750D02*
X141171250Y-62928750D01*
X107600000Y-82500000D02*
X105831250Y-84268750D01*
X139731250Y-70268750D02*
X139731250Y-79868750D01*
X107360000Y-127260000D02*
X110890000Y-127260000D01*
X140231250Y-69768750D02*
X139731250Y-70268750D01*
X139731250Y-79868750D02*
X137100000Y-82500000D01*
X137100000Y-82500000D02*
X107600000Y-82500000D01*
X105831250Y-125731250D02*
X107360000Y-127260000D01*
X140231250Y-63868750D02*
X140231250Y-69768750D01*
X105831250Y-84268750D02*
X105831250Y-125731250D01*
%TO.N,Net-(U1-GPIO27{slash}ADC1{slash}A1)*%
X140531250Y-82068750D02*
X140531250Y-70317280D01*
X129940000Y-127260000D02*
X126560000Y-127260000D01*
X124831250Y-84668750D02*
X125800000Y-83700000D01*
X141531250Y-65468750D02*
X144556250Y-65468750D01*
X141031250Y-65968750D02*
X141531250Y-65468750D01*
X138900000Y-83700000D02*
X140531250Y-82068750D01*
X140531250Y-70317280D02*
X141031250Y-69817280D01*
X125800000Y-83700000D02*
X138900000Y-83700000D01*
X141031250Y-69817280D02*
X141031250Y-65968750D01*
X124831250Y-125531250D02*
X124831250Y-84668750D01*
X126560000Y-127260000D02*
X124831250Y-125531250D01*
%TO.N,Net-(U1-GPIO28{slash}ADC2{slash}A2)*%
X141731250Y-69965809D02*
X141390585Y-70306474D01*
X143721250Y-68008750D02*
X142291250Y-68008750D01*
X141731250Y-68568750D02*
X141731250Y-69965809D01*
X144331250Y-82900000D02*
X144331250Y-125931250D01*
X144331250Y-125931250D02*
X145660000Y-127260000D01*
X141390585Y-70306474D02*
X141390585Y-79959335D01*
X145660000Y-127260000D02*
X148990000Y-127260000D01*
X141390585Y-79959335D02*
X144331250Y-82900000D01*
X142291250Y-68008750D02*
X141731250Y-68568750D01*
%TO.N,Net-(U1-GPIO29{slash}ADC3{slash}A3)*%
X137700000Y-82900000D02*
X108300000Y-82900000D01*
X108300000Y-82900000D02*
X106400000Y-84800000D01*
X142131250Y-71068750D02*
X142131250Y-79300000D01*
X142651250Y-70548750D02*
X142131250Y-71068750D01*
X107510000Y-108210000D02*
X110890000Y-108210000D01*
X106400000Y-107100000D02*
X107510000Y-108210000D01*
X106400000Y-84800000D02*
X106400000Y-107100000D01*
X139700000Y-80900000D02*
X137700000Y-82900000D01*
X144556250Y-70548750D02*
X142651250Y-70548750D01*
%TO.N,Net-(U1-GPIO1{slash}RX)*%
X141906985Y-85193015D02*
X141606985Y-85193015D01*
X126100000Y-84100000D02*
X125300000Y-84900000D01*
X160631250Y-78168750D02*
X150731250Y-78168750D01*
X125300000Y-84900000D02*
X125300000Y-106700000D01*
X139351470Y-84100000D02*
X126100000Y-84100000D01*
X125300000Y-106700000D02*
X126810000Y-108210000D01*
X143000000Y-84100000D02*
X141906985Y-85193015D01*
X126810000Y-108210000D02*
X129940000Y-108210000D01*
X150731250Y-78168750D02*
X145631250Y-83268750D01*
X139775735Y-83675735D02*
X139351470Y-84100000D01*
X143631250Y-83468750D02*
X143000000Y-84100000D01*
%TO.N,Net-(U1-GPIO2{slash}SCK)*%
X144900000Y-107000000D02*
X146110000Y-108210000D01*
X159796250Y-75628750D02*
X151171250Y-75628750D01*
X151171250Y-75628750D02*
X144900000Y-81900000D01*
X144900000Y-81900000D02*
X144900000Y-107000000D01*
X146110000Y-108210000D02*
X148990000Y-108210000D01*
%TO.N,Net-(U1-GPIO4{slash}MISO)*%
X107000000Y-88400000D02*
X107760000Y-89160000D01*
X159796250Y-73088750D02*
X152635705Y-73088750D01*
X109000000Y-83300000D02*
X107000000Y-85300000D01*
X139931250Y-81768750D02*
X138400000Y-83300000D01*
X107000000Y-85300000D02*
X107000000Y-88400000D01*
X107760000Y-89160000D02*
X110890000Y-89160000D01*
X152635705Y-73088750D02*
X144255947Y-81468508D01*
X138400000Y-83300000D02*
X109000000Y-83300000D01*
%TO.N,Net-(U1-GPIO3{slash}MOSI)*%
X154051250Y-70548750D02*
X159796250Y-70548750D01*
X140023265Y-84276735D02*
X139800000Y-84500000D01*
X139800000Y-84500000D02*
X139518570Y-84500000D01*
X139517570Y-84501000D02*
X126266100Y-84501000D01*
X126266100Y-84501000D02*
X125800000Y-84967100D01*
X140376735Y-83924678D02*
X140024678Y-84276735D01*
X139518570Y-84500000D02*
X139517570Y-84501000D01*
X143531250Y-80968750D02*
X143631250Y-80968750D01*
X143631250Y-80968750D02*
X154051250Y-70548750D01*
X140024678Y-84276735D02*
X140023265Y-84276735D01*
X142031250Y-82268750D02*
X140376735Y-83923265D01*
X142331250Y-82168750D02*
X142231250Y-82268750D01*
X126360000Y-89160000D02*
X129940000Y-89160000D01*
X125800000Y-84967100D02*
X125800000Y-88600000D01*
X140376735Y-83923265D02*
X140376735Y-83924678D01*
X142231250Y-82268750D02*
X142031250Y-82268750D01*
X125800000Y-88600000D02*
X126360000Y-89160000D01*
%TO.N,Net-(U1-GPIO0{slash}TX)*%
X148990000Y-89160000D02*
X146760000Y-89160000D01*
X145400000Y-84500000D02*
X146900000Y-83000000D01*
X145400000Y-87800000D02*
X145400000Y-84500000D01*
X146760000Y-89160000D02*
X145400000Y-87800000D01*
X146900000Y-83000000D02*
X147400000Y-83000000D01*
%TD*%
M02*
