%TF.GenerationSoftware,KiCad,Pcbnew,9.0.2*%
%TF.CreationDate,2025-06-19T18:20:55+08:00*%
%TF.ProjectId,osuPad,6f737550-6164-42e6-9b69-6361645f7063,rev?*%
%TF.SameCoordinates,Original*%
%TF.FileFunction,Soldermask,Bot*%
%TF.FilePolarity,Negative*%
%FSLAX46Y46*%
G04 Gerber Fmt 4.6, Leading zero omitted, Abs format (unit mm)*
G04 Created by KiCad (PCBNEW 9.0.2) date 2025-06-19 18:20:55*
%MOMM*%
%LPD*%
G01*
G04 APERTURE LIST*
%ADD10C,1.700000*%
%ADD11C,4.000000*%
%ADD12C,2.200000*%
%ADD13R,1.700000X1.700000*%
%ADD14O,1.700000X1.700000*%
%ADD15C,1.524000*%
G04 APERTURE END LIST*
D10*
%TO.C,SW4*%
X109620000Y-110750000D03*
D11*
X114700000Y-110750000D03*
D10*
X119780000Y-110750000D03*
D12*
X117240000Y-105670000D03*
X110890000Y-108210000D03*
%TD*%
D10*
%TO.C,SW5*%
X128670000Y-110750000D03*
D11*
X133750000Y-110750000D03*
D10*
X138830000Y-110750000D03*
D12*
X136290000Y-105670000D03*
X129940000Y-108210000D03*
%TD*%
D10*
%TO.C,SW6*%
X147720000Y-110750000D03*
D11*
X152800000Y-110750000D03*
D10*
X157880000Y-110750000D03*
D12*
X155340000Y-105670000D03*
X148990000Y-108210000D03*
%TD*%
D13*
%TO.C,Brd1*%
X136131250Y-67848750D03*
D14*
X136131250Y-70388750D03*
X136131250Y-72928750D03*
X136131250Y-75468750D03*
%TD*%
D10*
%TO.C,SW9*%
X147720000Y-91700000D03*
D11*
X152800000Y-91700000D03*
D10*
X157880000Y-91700000D03*
D12*
X155340000Y-86620000D03*
X148990000Y-89160000D03*
%TD*%
D10*
%TO.C,SW1*%
X109620000Y-129800000D03*
D11*
X114700000Y-129800000D03*
D10*
X119780000Y-129800000D03*
D12*
X117240000Y-124720000D03*
X110890000Y-127260000D03*
%TD*%
D10*
%TO.C,SW8*%
X128670000Y-91700000D03*
D11*
X133750000Y-91700000D03*
D10*
X138830000Y-91700000D03*
D12*
X136290000Y-86620000D03*
X129940000Y-89160000D03*
%TD*%
D10*
%TO.C,SW7*%
X109620000Y-91700000D03*
D11*
X114700000Y-91700000D03*
D10*
X119780000Y-91700000D03*
D12*
X117240000Y-86620000D03*
X110890000Y-89160000D03*
%TD*%
D10*
%TO.C,SW3*%
X147720000Y-129800000D03*
D11*
X152800000Y-129800000D03*
D10*
X157880000Y-129800000D03*
D12*
X155340000Y-124720000D03*
X148990000Y-127260000D03*
%TD*%
D15*
%TO.C,U1*%
X144556250Y-62928750D03*
X144556250Y-65468750D03*
X144556250Y-68008750D03*
X144556250Y-70548750D03*
X144556250Y-73088750D03*
X144556250Y-75628750D03*
X144556250Y-78168750D03*
X159796250Y-78168750D03*
X159796250Y-75628750D03*
X159796250Y-73088750D03*
X159796250Y-70548750D03*
X159796250Y-68008750D03*
X159796250Y-65468750D03*
X159796250Y-62928750D03*
%TD*%
D10*
%TO.C,SW2*%
X128670000Y-129800000D03*
D11*
X133750000Y-129800000D03*
D10*
X138830000Y-129800000D03*
D12*
X136290000Y-124720000D03*
X129940000Y-127260000D03*
%TD*%
M02*
